<svg width="257" height="104" viewBox="0 0 257 104" fill="none" xmlns="http://www.w3.org/2000/svg">
<path d="M136.044 93.133C132.058 92.935 128.489 92.16 125.285 90.795C124.373 90.407 122.799 89.586 121.994 89.079C116.895 85.87 113.506 81.106 111.903 74.892C111.785 74.437 111.683 74.057 111.674 74.048C111.666 74.039 111.568 74.315 111.458 74.662C110.856 76.552 109.927 78.506 108.82 80.209C105.06 85.993 98.697 89.847 90.707 91.18C86.975 91.803 83.569 91.895 65.537 91.86L56 91.842V51.421V11L67.034 11.025C78.056 11.05 78.912 11.063 81.386 11.252C88.563 11.8 93.448 13.41 97.32 16.505C101.802 20.087 104.25 25.754 103.934 31.818C103.649 37.302 101.207 41.948 96.814 45.368C96.519 45.598 96.31 45.795 96.348 45.807C98.007 46.303 100.385 47.375 102.023 48.364C106.48 51.055 109.877 55.023 111.429 59.35C111.555 59.702 111.677 60.012 111.699 60.038C111.721 60.064 111.767 59.979 111.8 59.851C111.957 59.247 112.323 58.097 112.59 57.37C113.726 54.279 115.421 51.383 117.569 48.863C118.614 47.638 120.371 46.002 121.722 44.996C127.144 40.96 134.039 39.268 141.601 40.118C146.687 40.69 150.969 42.382 154.559 45.24C155.476 45.971 157.151 47.646 157.886 48.569C160.06 51.298 161.491 54.162 162.308 57.415C162.426 57.887 162.535 58.285 162.549 58.299C162.563 58.313 162.574 47.775 162.574 34.882V11.436H169.503H176.431V51.643V91.85H169.503H162.574V81.23V70.61H144.001H125.428L125.463 71.033C125.643 73.189 126.554 75.581 127.853 77.31C129.961 80.115 133.057 81.773 137.187 82.309C138.239 82.445 140.918 82.445 142.029 82.309C145.303 81.906 148.137 80.931 150.688 79.33C151.06 79.096 151.514 78.796 151.696 78.663L152.027 78.421L152.475 78.943C152.722 79.23 154.171 80.934 155.696 82.729C157.221 84.524 158.52 86.049 158.582 86.119L158.695 86.245L158.4 86.509C157.886 86.969 156.901 87.721 156.099 88.264C151.956 91.069 146.831 92.671 140.691 93.08C139.516 93.156 137.088 93.185 136.044 93.133V93.133ZM83.606 80.354C84.478 80.277 85.51 80.148 86.013 80.054C90.203 79.271 93.284 77.436 95.192 74.59C97.6 70.998 97.977 65.566 96.092 61.621C95.538 60.463 94.877 59.517 93.962 58.579C92.435 57.012 90.628 55.924 88.26 55.145C86.675 54.624 84.905 54.332 82.054 54.121C81.377 54.071 79.61 54.052 75.687 54.051L70.257 54.05L70.243 67.185C70.235 74.409 70.241 80.352 70.256 80.391C70.278 80.45 71.382 80.458 76.61 80.438C80.581 80.423 83.186 80.391 83.606 80.354V80.354ZM149.438 60.19C149.217 59.034 148.81 57.797 148.309 56.752C147.153 54.342 145.529 52.683 143.259 51.596C141.549 50.777 139.861 50.421 137.695 50.423C135.999 50.425 134.633 50.656 133.251 51.176C129.678 52.52 127.115 55.438 125.949 59.489C125.848 59.842 125.749 60.226 125.731 60.341L125.697 60.55H137.602H149.506L149.438 60.19ZM77.908 43.165C80.335 42.98 82.046 42.551 83.713 41.708C84.704 41.207 85.369 40.746 86.086 40.06C87.658 38.557 88.605 36.66 88.984 34.255C89.103 33.502 89.147 31.875 89.069 31.123C88.822 28.738 87.912 26.785 86.353 25.293C85.631 24.602 84.966 24.14 83.981 23.645C81.36 22.328 78.46 21.892 72.585 21.933L70.258 21.949L70.244 32.542C70.236 38.369 70.243 43.169 70.259 43.21C70.283 43.273 70.815 43.28 73.723 43.253C75.612 43.236 77.496 43.196 77.908 43.165V43.165ZM185.741 51.643V11.436H192.563H199.384V51.643V91.85H192.563H185.741V51.643Z" fill="black"/>
</svg>
