<svg width="277" height="49" viewBox="0 0 277 49" fill="none" xmlns="http://www.w3.org/2000/svg">
<path d="M0 4.02034H8.33031L15.7312 24.6374L23.0633 3.95161H31.4624V47.8661H24.3369V16.047L18.2096 32.6094H12.9774L7.05667 16.047V47.8661H0V4.02034Z" fill="#131313"/>
<path d="M39.4141 41.5435H47.3313V21.3387H39.7927V15.0161H55.2141V41.5435H62.4085V47.8661H39.4141V41.5435ZM50.7736 9.31206C49.8786 9.31206 49.0524 9.10589 48.2951 8.69355C47.5378 8.2583 46.9412 7.6856 46.5052 6.97546C46.0691 6.26531 45.8511 5.4979 45.8511 4.67321C45.8511 3.32165 46.3101 2.21061 47.228 1.34011C48.146 0.446704 49.3278 0 50.7736 0C51.6227 0 52.4259 0.217625 53.1832 0.652875C53.9634 1.06522 54.583 1.63791 55.042 2.37097C55.501 3.08111 55.7305 3.84853 55.7305 4.67321C55.7305 5.4979 55.501 6.26531 55.042 6.97546C54.583 7.6856 53.9634 8.2583 53.1832 8.69355C52.4259 9.10589 51.6227 9.31206 50.7736 9.31206Z" fill="#131313"/>
<path d="M73.114 41.7496H82.1327V6.49439H73.5615V0.37798H90.1188V41.7496H99.0687V47.8661H73.114V41.7496Z" fill="#131313"/>
<path d="M122.683 49C119.516 49 116.693 48.3128 114.215 46.9383C111.736 45.5638 109.786 43.5937 108.363 41.028C106.963 38.4395 106.263 35.3927 106.263 31.8878C106.263 28.3371 106.929 25.2331 108.26 22.5757C109.591 19.9184 111.438 17.8796 113.802 16.4593C116.165 15.0161 118.839 14.2945 121.822 14.2945C124.461 14.2945 126.836 14.913 128.948 16.1501C131.082 17.3642 132.769 19.1854 134.008 21.6136C135.247 24.0189 135.867 26.9282 135.867 30.3415C135.867 30.8913 135.821 31.6702 135.729 32.6781L135.66 33.6403H114.077C114.421 36.6412 115.362 38.9091 116.9 40.4439C118.437 41.9558 120.273 42.7118 122.407 42.7118C123.922 42.7118 125.448 42.3682 126.986 41.6809C128.523 40.9708 129.785 39.9857 130.772 38.7258L135.144 43.0898C131.816 47.0299 127.663 49 122.683 49ZM127.984 27.8675C127.984 26.493 127.708 25.2216 127.158 24.0533C126.63 22.885 125.861 21.9572 124.851 21.27C123.865 20.5598 122.717 20.2048 121.409 20.2048C119.481 20.2048 117.887 20.9035 116.624 22.3008C115.362 23.6753 114.605 25.5309 114.352 27.8675H127.984Z" fill="#131313"/>
<path d="M178.103 4.02034H206.709V10.7896H185.78V21.6136H203.129V28.5203H185.78V41.0968H206.571V47.8661H178.103V4.02034Z" fill="#131313"/>
<path d="M213.628 15.0161H221.579V18.3836C222.75 17.1007 224.138 16.1043 225.745 15.3941C227.351 14.6611 229.095 14.2945 230.977 14.2945C234.098 14.2945 236.588 15.4056 238.447 17.6276C240.328 19.8268 241.269 23.263 241.269 27.9362V47.8661H233.352V28.0049C233.352 25.5309 232.893 23.7097 231.975 22.5414C231.08 21.3731 229.738 20.7889 227.948 20.7889C226.823 20.7889 225.767 21.018 224.781 21.4762C223.817 21.9114 223.037 22.5757 222.44 23.4691C221.866 24.3626 221.579 25.4621 221.579 26.7679V47.8661H213.628V15.0161Z" fill="#131313"/>
<path d="M260.787 48.9313C258.171 48.9313 255.796 48.3013 253.661 47.0414C251.527 45.7585 249.84 43.8457 248.601 41.3029C247.362 38.7373 246.742 35.6218 246.742 31.9565C246.742 28.3829 247.373 25.256 248.636 22.5757C249.921 19.8955 251.63 17.8453 253.765 16.425C255.899 15.0047 258.217 14.2945 260.718 14.2945C262.003 14.2945 263.357 14.6038 264.78 15.2223C266.203 15.8408 267.385 16.6311 268.325 17.5933V0.37798H276.931V1.1683C276.679 1.4432 276.518 1.75245 276.449 2.09607C276.38 2.41678 276.357 2.96657 276.38 3.74544L276.243 43.9144C276.243 44.7162 276.289 45.4264 276.38 46.0449C276.472 46.6405 276.679 47.2475 277 47.8661H269.324C269.002 47.2705 268.807 46.7092 268.739 46.1823C268.693 45.6554 268.67 44.8995 268.67 43.9144C267.981 45.5638 266.891 46.8123 265.4 47.6599C263.908 48.5075 262.37 48.9313 260.787 48.9313ZM261.923 42.3682C266.237 42.3682 268.394 38.5998 268.394 31.0631C268.394 27.9018 267.935 25.382 267.017 23.5035C266.099 21.6251 264.47 20.6858 262.129 20.6858C259.651 20.6858 257.792 21.7167 256.553 23.7784C255.337 25.8401 254.728 28.5203 254.728 31.8191C254.728 34.2702 255.084 36.2861 255.796 37.8668C256.53 39.4474 257.436 40.5928 258.515 41.3029C259.617 42.0131 260.752 42.3682 261.923 42.3682Z" fill="#131313"/>
</svg>
