<svg width="1612" height="334" viewBox="0 0 1612 334" fill="none" xmlns="http://www.w3.org/2000/svg">
<path d="M625.37 269.312C604.903 269.312 587.651 265.135 573.614 256.782C559.668 248.429 549.163 236.632 542.099 221.39C535.126 206.148 531.639 188.151 531.639 167.397C531.639 147.419 535.398 129.723 542.914 114.309C550.521 98.8946 561.389 86.9248 575.516 78.4C589.734 69.7888 606.443 65.4829 625.642 65.4829C649.187 65.4829 668.748 71.1663 684.325 82.5331C699.901 93.8141 710.27 110.133 715.432 131.488H686.498C681.97 118.055 674.59 108.152 664.356 101.779C654.214 95.4073 641.309 92.178 625.642 92.0917C611.333 92.0917 599.243 95.278 589.372 101.65C579.501 107.937 572.075 116.72 567.094 128.001C562.203 139.281 559.713 152.414 559.623 167.397C559.713 191.939 565.011 210.626 575.516 223.456C586.021 236.287 602.729 242.703 625.642 242.703C637.867 242.703 648.553 240.292 657.7 235.469C666.937 230.561 674.318 223.672 679.842 214.802C685.457 205.847 689.034 195.341 690.574 183.285H625.642V156.677H719.508V264.145H691.525V244.124C683.193 252.391 673.277 258.676 661.775 262.982C650.274 267.202 638.139 269.312 625.37 269.312Z" fill="white"/>
<path fill-rule="evenodd" clip-rule="evenodd" d="M56 70.779H132.207C150.862 70.779 166.982 74.9122 180.566 83.179C194.151 91.4458 204.474 102.899 211.538 117.538C218.692 132.091 222.269 148.711 222.269 167.397C222.269 186.428 218.602 203.263 211.266 217.902C204.021 232.455 193.607 243.822 180.023 252.003C166.439 260.097 150.5 264.145 132.207 264.145H56V70.779ZM132.207 237.536C145.519 237.536 156.839 234.608 166.167 228.753C175.495 222.897 182.513 214.716 187.223 204.211C192.022 193.618 194.377 181.348 194.286 167.397C194.377 153.361 191.977 141.09 187.087 130.584C182.287 119.992 175.223 111.812 165.896 106.042C156.568 100.273 145.338 97.3878 132.207 97.3878H83.9834V237.536H132.207Z" fill="white"/>
<path d="M263.087 70.779H291.07V264.145H263.087V70.779Z" fill="white"/>
<path fill-rule="evenodd" clip-rule="evenodd" d="M437.301 70.9083H399.537L324.417 264.145H354.302L376.444 207.181H458.492L479.683 264.145H509.432L437.301 70.9083ZM418.283 99.4546L448.44 180.573H386.768L418.283 99.4546Z" fill="white"/>
<path d="M1011.28 70.779H1052.44L1147.12 233.79V70.779H1175.11V264.145H1132.72L1039.27 103.33V264.145H1011.28V70.779Z" fill="white"/>
<path fill-rule="evenodd" clip-rule="evenodd" d="M1321.34 70.9083H1283.57L1208.45 264.145H1238.34L1260.48 207.181H1342.53L1363.72 264.145H1393.47L1321.34 70.9083ZM1302.32 99.4546L1332.48 180.573H1270.8L1302.32 99.4546Z" fill="white"/>
<path d="M1427.09 70.779H1455.07V237.536H1556V264.145H1427.09V70.779Z" fill="white"/>
<path d="M912.595 276.588L974.628 168.646L919.248 72.1737L857.163 72.1761L873.327 100.697L902.775 100.696L941.78 168.644L911.224 221.869L817.309 56.9805L808.682 71.7357L753.059 168.652L808.436 265.123L872.669 265.12L854.472 236.599L824.91 236.6L785.905 168.653L816.941 114.592L912.595 276.588Z" fill="white"/>
</svg>
