<svg width="276" height="60" viewBox="0 0 276 60" fill="none" xmlns="http://www.w3.org/2000/svg">
<path fill-rule="evenodd" clip-rule="evenodd" d="M184.239 0.727753C184.239 14.3596 184.229 27.9915 184.256 41.624C184.258 42.719 184.408 43.84 184.668 44.9053C185.26 47.3196 187.065 48.761 189.543 48.9358C190.288 48.9884 191.035 49.0068 191.818 49.0422C191.818 52.1069 191.818 55.1906 191.818 58.3896C190.635 58.4124 189.461 58.4897 188.291 58.4472C185.818 58.3567 183.442 57.8342 181.256 56.622C177.764 54.6865 175.745 51.6383 174.687 47.8737C174.136 45.918 173.907 43.9173 173.907 41.89C173.903 28.3297 173.905 14.7694 173.906 1.20845C173.906 1.04822 173.923 0.887986 173.932 0.727753C177.367 0.727753 180.803 0.727753 184.239 0.727753Z" fill="#131313"/>
<path fill-rule="evenodd" clip-rule="evenodd" d="M275.605 27.3537C272.32 26.797 269.242 27.0871 266.792 29.6628C265.264 31.269 264.77 33.283 264.766 35.4331C264.754 42.8564 264.762 50.2785 264.762 57.7018C264.762 57.9133 264.762 58.1242 264.762 58.3731C261.334 58.3731 257.946 58.3731 254.487 58.3731C254.487 58.1679 254.487 57.9773 254.487 57.786C254.487 50.2018 254.467 42.6189 254.497 35.0348C254.51 31.8713 255.133 28.8218 256.641 26.0079C259.034 21.5448 262.818 18.9538 267.715 17.9139C270.328 17.3591 272.964 17.3388 275.605 17.6909C275.605 20.9114 275.605 24.1326 275.605 27.3537Z" fill="#131313"/>
<path fill-rule="evenodd" clip-rule="evenodd" d="M0.571472 4.60946C0.703206 4.60249 0.791239 4.59363 0.878639 4.59363C9.46727 4.59553 18.0559 4.55373 26.6439 4.62403C29.8771 4.65063 32.9905 5.37706 35.7677 7.15419C38.8026 9.09599 40.5348 11.9264 41.2131 15.4135C41.7514 18.1843 41.7787 20.9545 40.8496 23.669C40.0427 26.0282 38.8748 27.6001 36.3839 29.6977C36.5239 29.787 36.6468 29.8725 36.776 29.9479C40.683 32.2298 42.9003 35.6333 43.4912 40.1034C43.9333 43.4486 43.6008 46.7046 42.1846 49.7927C40.4119 53.6599 37.3713 56.0995 33.3807 57.4219C31.1526 58.1597 28.8536 58.4111 26.5185 58.4111C18.0553 58.4105 9.59204 58.4105 1.1288 58.4105C0.953372 58.4105 0.777305 58.4105 0.572105 58.4105C0.571472 40.4618 0.571472 22.56 0.571472 4.60946ZM10.8454 48.9403C11.0506 48.951 11.2083 48.9643 11.3666 48.9643C16.1249 48.9656 20.8831 48.977 25.642 48.9536C26.4406 48.9491 27.2538 48.8668 28.0322 48.6952C30.1272 48.2335 31.8094 47.1872 32.6416 45.0972C33.1615 43.7913 33.254 42.4302 33.0805 41.0426C32.7834 38.6543 31.6029 36.9133 29.3704 35.9341C27.9682 35.3179 26.4849 35.1589 24.9744 35.1589C20.4664 35.1589 15.9589 35.1589 11.4502 35.1589C11.259 35.1589 11.0677 35.1589 10.8454 35.1589C10.8454 39.7753 10.8454 44.3283 10.8454 48.9403ZM10.8397 25.7153C11.0196 25.7254 11.1754 25.7419 11.3312 25.7419C16.0343 25.7432 20.7368 25.759 25.4393 25.7267C26.1588 25.7216 26.9067 25.588 27.5888 25.3575C32.4883 23.7045 32.4256 17.9145 30.0132 15.6219C28.6972 14.3717 27.1062 13.9321 25.357 13.9283C20.6906 13.9176 16.0229 13.9245 11.3565 13.9245C11.1855 13.9245 11.0151 13.9245 10.8397 13.9245C10.8397 17.8987 10.8397 21.7912 10.8397 25.7153Z" fill="#131313"/>
<path fill-rule="evenodd" clip-rule="evenodd" d="M233.487 58.3839C230.201 58.3839 227.005 58.3839 223.769 58.3839C223.769 57.0418 223.769 55.7239 223.769 54.2539C223.535 54.4857 223.393 54.6263 223.251 54.7663C220.637 57.3344 217.461 58.7043 213.857 59.1261C204.008 60.2794 196.09 53.694 193.516 45.3334C191.234 37.919 192.311 30.9605 197.154 24.7976C200.351 20.7309 204.651 18.4167 209.77 17.6878C214.863 16.962 219.679 17.784 224.046 20.5878C228.884 23.6924 231.804 28.1618 232.954 33.7548C233.31 35.4901 233.446 37.2964 233.464 39.0723C233.524 45.2618 233.487 51.4533 233.487 57.6441C233.487 57.874 233.487 58.1027 233.487 58.3839ZM202.787 37.7549C202.764 40.7943 203.354 42.9571 204.517 44.8679C208.119 50.7851 215.931 51.4375 220.434 46.1973C224.269 41.7348 224.084 34.5997 220.02 30.2487C216.417 26.3904 210.77 26.0072 206.75 29.4203C203.97 31.7807 202.851 34.922 202.787 37.7549Z" fill="#131313"/>
<path fill-rule="evenodd" clip-rule="evenodd" d="M87.2096 39.9767C87.164 44.1402 85.3634 49.1486 81.3886 53.2767C78.2194 56.5662 74.3459 58.5479 69.8087 59.1318C63.4279 59.9526 57.8489 58.1704 53.1901 53.7263C50.1304 50.8079 48.2273 47.1986 47.421 43.054C46.2076 36.8189 47.2222 30.9814 50.943 25.7716C54.3472 21.0052 59.0205 18.2476 64.8662 17.5712C73.0571 16.6231 81.0764 20.9748 84.8086 28.3442C86.4211 31.5267 87.2191 34.8929 87.2096 39.9767ZM67.3064 26.8673C64.4438 26.8933 62.2372 27.8654 60.4639 29.749C56.6816 33.7662 56.1218 40.9058 59.189 45.5424C63.1594 51.5445 71.596 51.3824 75.1268 45.1155C77.764 40.4339 77.55 35.632 74.6867 31.091C72.9602 28.3518 70.3319 26.9344 67.3064 26.8673Z" fill="#131313"/>
<path fill-rule="evenodd" clip-rule="evenodd" d="M90.6492 18.4744C94.1085 18.4744 97.4835 18.4744 100.924 18.4744C100.924 18.7049 100.924 18.9127 100.924 19.121C100.924 26.6533 100.92 34.1855 100.928 41.7184C100.93 43.1624 101.178 44.5658 101.848 45.8629C102.991 48.0688 104.91 49.0777 107.298 49.3107C110.023 49.5767 112.453 48.939 114.34 46.8357C115.615 45.4151 116.162 43.6962 116.166 41.8127C116.178 34.2628 116.171 26.7122 116.171 19.1622C116.171 18.95 116.171 18.7379 116.171 18.4877C119.593 18.4877 122.981 18.4877 126.446 18.4877C126.446 18.6897 126.446 18.8804 126.446 19.0704C126.446 26.6564 126.547 34.2438 126.415 41.8279C126.298 48.6141 123.474 53.979 117.344 57.2736C114.081 59.0273 110.531 59.5264 106.855 59.28C104.498 59.1223 102.222 58.6454 100.074 57.6511C95.3542 55.4655 92.5403 51.725 91.2724 46.7502C90.8189 44.9749 90.6524 43.1617 90.6524 41.3333C90.6486 33.9448 90.6505 26.5557 90.6505 19.166C90.6492 18.9551 90.6492 18.7442 90.6492 18.4744Z" fill="#131313"/>
<path fill-rule="evenodd" clip-rule="evenodd" d="M169.948 44.9249C169.642 45.8281 169.387 46.7356 169.03 47.602C166.447 53.8619 161.766 57.5973 155.167 58.8969C150.181 59.8786 145.328 59.3896 140.795 56.9804C135.064 53.9354 131.621 49.1087 130.386 42.7925C129.192 36.6783 130.293 30.9384 133.947 25.8255C137.25 21.2041 141.79 18.4978 147.409 17.6897C152.057 17.0215 156.544 17.6086 160.714 19.8608C165.426 22.4055 168.302 26.4158 169.744 31.5154C169.772 31.6167 169.783 31.7231 169.809 31.8631C169.631 31.8732 169.474 31.889 169.318 31.889C165.989 31.8903 162.661 31.889 159.333 31.8935C159.053 31.8935 158.851 31.865 158.677 31.5749C155.217 25.8179 147.518 25.2599 143.253 30.4469C139.347 35.1944 139.435 42.1047 143.458 46.7002C147.793 51.6503 155.513 50.8859 158.803 45.189C158.89 45.0402 159.112 44.8781 159.271 44.8774C162.742 44.8616 166.214 44.8667 169.685 44.8692C169.737 44.8686 169.789 44.8901 169.948 44.9249Z" fill="#131313"/>
<path fill-rule="evenodd" clip-rule="evenodd" d="M249.066 58.3807C245.677 58.3807 242.306 58.3807 238.897 58.3807C238.897 45.0832 238.897 31.8054 238.897 18.4883C242.274 18.4883 245.645 18.4883 249.066 18.4883C249.066 31.7592 249.066 45.0364 249.066 58.3807Z" fill="#131313"/>
</svg>
