<svg width="406" height="68" viewBox="0 0 406 68" fill="none" xmlns="http://www.w3.org/2000/svg">
<path d="M102.504 16.9973C108.993 16.9973 114.833 19.8037 118.401 24.769L109.533 31.1375C108.019 28.7628 105.316 27.4675 102.504 27.4675C97.8533 27.4675 93.4193 30.7058 93.4193 35.9949C93.4193 41.176 97.8533 44.7381 102.504 44.7381C105.316 44.7381 108.019 43.4428 109.533 41.0681L118.401 47.3287C114.941 52.294 109.101 55.1004 102.504 55.1004C92.0134 55.1004 82.6045 47.4366 82.6045 35.9949C82.6045 24.5531 92.0134 16.9973 102.504 16.9973Z" fill="#131313"/>
<path d="M152.576 50.1352C150.197 53.6972 144.79 54.9925 141.978 54.9925C132.677 54.9925 123.376 47.7604 123.376 35.9949C123.376 24.3372 132.677 16.9973 141.978 16.9973C144.357 16.9973 149.764 17.7528 152.576 21.8546V17.7528H163.391V54.2369H152.576V50.1352ZM143.708 44.6302C148.142 44.6302 152.576 41.3919 152.576 35.9949C152.576 30.4899 148.25 27.3596 143.708 27.3596C139.166 27.3596 134.516 30.8137 134.516 35.9949C134.516 41.176 139.166 44.6302 143.708 44.6302Z" fill="#131313"/>
<path d="M206.65 34.9155V54.2369H195.727V34.5917C195.619 29.9502 192.807 27.5755 189.671 27.5755C186.427 27.5755 183.29 29.4105 183.29 35.0234V54.3449H172.367V17.7528H183.29V23.042C185.021 19.264 188.914 16.9973 192.807 16.9973C198.647 16.9973 202.541 19.1561 204.596 23.3658C208.164 17.6449 212.923 16.8893 215.519 16.8893C224.17 16.8893 229.578 22.3943 229.578 33.4043V54.129H218.763V34.6996C218.763 29.9502 215.951 27.4675 212.707 27.4675C209.462 27.5755 206.65 29.6264 206.65 34.9155Z" fill="#131313"/>
<path d="M248.179 17.7528V22.2864C250.018 18.9402 254.344 16.9973 258.886 16.9973C268.295 16.9973 276.514 24.4452 276.514 35.8869C276.514 47.5446 268.187 54.9925 258.886 54.9925C254.344 54.9925 250.018 53.1575 248.179 49.8113V67.6216H237.364V17.7528H248.179ZM256.939 44.846C261.59 44.846 265.375 41.3919 265.375 36.2108C265.375 30.8137 261.59 27.3596 256.939 27.3596C252.397 27.3596 248.504 30.9216 248.504 36.2108C248.396 41.6078 252.397 44.846 256.939 44.846Z" fill="#131313"/>
<path d="M293.926 39.2331C283.003 36.3187 282.895 30.7058 283.003 27.3596C283.111 21.9625 289.6 16.9973 297.278 16.9973C304.524 16.9973 312.203 20.2355 312.311 29.0867H302.037C301.929 26.3881 299.658 25.8484 297.927 25.8484C295.548 25.8484 294.034 26.9278 294.142 28.5469C294.25 29.6264 295.116 30.7058 297.387 31.2455L303.551 32.8646C312.419 35.2393 313.501 41.176 313.501 43.4428C313.501 51.2146 305.39 54.8846 297.711 54.8846C290.249 54.8846 282.57 50.459 282.462 42.3634H292.628C292.736 44.5222 295.007 46.5731 298.036 46.5731C300.415 46.4652 302.47 45.3858 302.47 43.5508C302.47 42.0396 301.496 41.176 298.901 40.4205L293.926 39.2331Z" fill="#131313"/>
<path d="M403.372 47.6525C399.695 53.1575 392.881 55.1005 386.717 55.1005C376.227 55.1005 367.683 47.4366 367.683 35.9949C367.683 24.5531 376.335 17.1052 386.717 17.1052C397.099 17.1052 405.427 24.8769 405.427 36.3187C405.427 37.2902 405.318 38.6934 405.318 39.6649H378.606C379.147 43.8746 383.797 45.7096 387.582 45.7096C390.502 45.7096 393.747 44.6302 395.585 42.2555L403.372 47.6525ZM394.504 32.7566C393.963 28.3311 389.853 26.4961 386.825 26.4961C383.797 26.4961 379.579 28.1152 378.714 32.7566H394.504Z" fill="#131313"/>
<path d="M355.246 56.0719C349.082 56.0719 344.756 53.0496 344.756 45.1699V27.6834H339.889V18.0767H344.647V5.87933H355.57V18.0767H363.033V27.6834H355.57V41.6078C355.57 44.954 357.95 46.2493 360.545 45.0619L362.924 52.9416C361.302 54.7766 357.95 56.0719 355.246 56.0719Z" fill="#131313"/>
<path d="M320.855 11.2764V0.374329H331.778V11.2764C331.778 11.2764 320.855 11.2764 320.855 11.2764ZM320.855 54.2369V18.0767H331.778V54.2369H320.855Z" fill="#131313"/>
<path d="M26.4756 39.8808L16.0933 45.1699L29.8281 19.264L43.6711 45.1699L33.1807 39.8808V54.2369H59.1363L29.8281 0.482269L0.628143 54.2369H26.4756V39.8808Z" fill="#131313"/>
<path d="M49.6193 0.482269H39.6696L68.9778 54.2369H78.8193L49.6193 0.482269Z" fill="#131313"/>
</svg>
