<svg width="281" height="72" viewBox="0 0 281 72" fill="none" xmlns="http://www.w3.org/2000/svg">
<path fill-rule="evenodd" clip-rule="evenodd" d="M1.38444 32.727C-0.981659 23.6031 0.402228 15.161 0.402228 4.9514C8.83603 0.412379 17.1869 1.11368e-05 26.2375 1.11368e-05C34.0632 1.11368e-05 45.1611 1.09407 51.8447 4.93645C52.5297 14.5616 52.9237 23.0337 50.6405 33.9697C48.3573 44.9059 41.7152 60.0145 26.5692 71.1759C10.0403 59.4459 4.63597 45.2659 1.38444 32.727" fill="#131313"/>
<path fill-rule="evenodd" clip-rule="evenodd" d="M9.27748 19.3586L1.13306 28.9472C2.96009 38.1375 8.03178 57.4036 26.5053 70.3997C44.813 56.7593 49.7188 38.0627 50.8254 28.7369L42.9099 19.3362L34.1435 28.9547L26.0691 19.4185L18.0223 28.835L9.27748 19.3586" fill="white"/>
<path fill-rule="evenodd" clip-rule="evenodd" d="M47.6144 9.63349C47.5315 9.63349 47.3242 9.5437 47.6144 9.45391C47.7803 9.45391 48.195 9.45391 48.6511 10.0823C48.8584 9.99252 49.3145 9.18464 49.8121 9.45391C49.8121 9.4988 48.195 13.3599 48.0291 13.6741C47.3242 13.2701 43.1777 13.0008 43.5915 13.0008C43.9241 13.0008 39.8182 13.1355 39.1962 13.6741C38.9889 13.2701 37.3718 9.36414 37.3718 9.36414C37.8693 9.13972 38.4084 9.90276 38.5742 9.99254C38.9889 9.36414 39.4035 9.36414 39.4865 9.36414C39.9011 9.45392 39.6523 9.54371 39.6108 9.63349C37.6205 11.384 40.5231 13.3599 41.1451 11.384C43.7159 11.6982 43.011 9.45392 42.389 9.13973C41.8914 9.00509 42.2232 8.91531 42.389 8.91531C42.5963 8.78067 42.928 8.78068 42.928 9.0051C42.928 7.79227 43.011 6.9843 43.5915 6.62524C44.2143 7.07408 44.2972 7.79227 44.2143 9.0051C44.2972 8.78068 44.5875 8.91531 44.8363 8.91531C44.9192 9.00509 45.3339 9.0051 44.9192 9.18466C44.2143 9.45393 43.5915 11.8329 46.1217 11.384C46.7022 13.3599 49.7707 11.1596 47.6144 9.63349V9.63349ZM45.9144 11.9675L46.6608 12.911L45.2095 12.6866L45.9144 11.9675ZM43.5915 10.8903L44.5046 12.6866H42.7207L43.5915 10.8903ZM41.3109 11.9675L40.5645 12.911L42.0158 12.6866L41.3109 11.9675Z" fill="white"/>
<path fill-rule="evenodd" clip-rule="evenodd" d="M40.2794 15.864C39.9892 15.3254 39.6575 14.3829 39.4907 14.1584C40.1965 13.5749 42.8088 13.4852 43.7625 13.4852C45.1723 13.4852 47.122 13.7096 47.744 14.1584C47.744 14.1584 47.4538 15.2806 47.205 15.9538C46.0845 15.505 44.5918 15.3254 43.5966 15.3254C42.4771 15.3254 41.1502 15.505 40.2794 15.864V15.864ZM46.7894 14.338C47.0382 14.338 47.287 14.6073 47.287 14.8317C47.287 15.101 47.0382 15.3704 46.7894 15.3704C46.583 15.3704 46.3333 15.101 46.3333 14.8317C46.3333 14.6073 46.583 14.338 46.7894 14.338ZM45.2552 13.9789C45.504 13.9789 45.7528 14.2482 45.7528 14.4726C45.7528 14.742 45.504 15.0113 45.2552 15.0113C45.0479 15.0113 44.7991 14.742 44.7991 14.4726C44.7991 14.2482 45.0479 13.9789 45.2552 13.9789ZM43.6381 13.8442C43.8869 13.8442 44.1357 14.1136 44.1357 14.338C44.1357 14.6073 43.8869 14.8766 43.6381 14.8766C43.4308 14.8766 43.182 14.6073 43.182 14.338C43.182 14.1136 43.4308 13.8442 43.6381 13.8442ZM42.021 13.9789C42.2697 13.9789 42.5185 14.2482 42.5185 14.4726C42.5185 14.742 42.2697 15.0113 42.021 15.0113C41.8136 15.0113 41.5648 14.742 41.5648 14.4726C41.5648 14.2482 41.8136 13.9789 42.021 13.9789ZM40.5282 14.338C40.777 14.338 41.0258 14.6073 41.0258 14.8317C41.0258 15.101 40.777 15.3704 40.5282 15.3704C40.3209 15.3704 40.0721 15.101 40.0721 14.8317C40.0721 14.6073 40.3209 14.338 40.5282 14.338Z" fill="white"/>
<path fill-rule="evenodd" clip-rule="evenodd" d="M43.5889 15.6864C45.4133 15.6864 47.1039 16.0521 47.1039 16.2718C47.1039 16.4915 45.6163 16.6374 43.7236 16.6374C41.8992 16.6374 40.3442 16.4915 40.3442 16.2718C40.3442 16.0521 41.7636 15.6864 43.5889 15.6864" fill="white"/>
<path fill-rule="evenodd" clip-rule="evenodd" d="M20.4178 3.89097C20.4178 3.89097 21.6608 4.45198 22.6975 4.00315C23.9414 3.44206 25.1163 3.10543 26.0147 3.55427V15.0384C25.2545 14.7392 24.2524 14.8514 23.1121 15.1506C21.9718 15.4498 21.3161 15.4873 20.4178 15.3002V3.89097ZM23.9069 12.3827C23.9069 11.9712 24.1487 11.859 24.3215 11.859C24.4597 11.859 24.7016 11.9712 24.7016 12.3827C24.7016 12.8315 24.4597 12.9437 24.3215 12.9437C24.1487 12.9437 23.9069 12.8315 23.9069 12.3827ZM23.6304 12.3827C23.6304 13.1308 24.1142 13.2056 24.3215 13.2056C24.4943 13.2056 24.978 13.1308 24.978 12.3827C24.978 11.672 24.4943 11.5972 24.3215 11.5972C24.1142 11.5972 23.6304 11.672 23.6304 12.3827ZM23.043 12.7567L22.4901 11.672H22.1446V13.243H22.4556V12.1208L23.0084 13.243H23.3194V11.672H23.043V12.7567ZM21.558 13.3552H21.8345V11.8216H21.558V13.3552ZM25.2199 8.26818H24.7707L24.5288 9.46515L24.287 8.26818H23.8377V9.80086H24.1142V8.52908L24.3906 9.80086H24.6671L24.9435 8.52908V9.80086H25.2199V8.26818ZM22.5593 9.16494C22.5593 8.75354 22.7666 8.64225 22.9394 8.64225C23.0775 8.64225 23.3194 8.75354 23.3194 9.16494C23.3194 9.61474 23.0775 9.72696 22.9394 9.72696C22.7666 9.72696 22.5593 9.61474 22.5593 9.16494ZM22.2482 9.16494C22.2482 9.91399 22.732 9.9888 22.9394 9.9888C23.1121 9.9888 23.6304 9.91399 23.6304 9.16494C23.6304 8.4543 23.1121 8.37948 22.9394 8.37948C22.732 8.37948 22.2482 8.4543 22.2482 9.16494ZM21.178 8.82927H21.4535C21.5917 8.82927 21.7991 8.86669 21.7991 9.3155C21.7991 9.57639 21.6962 9.83917 21.4535 9.83917H21.178V8.82927ZM20.8669 10.101H21.4889C21.9718 10.101 22.0763 9.61474 22.0763 9.3155C22.0763 9.01627 21.9718 8.56741 21.5226 8.56741H20.8669V10.101ZM23.5613 6.39705L23.0084 5.34973H22.6975V6.84588H22.9739V5.79856L23.5268 6.84588H23.8377V5.34973H23.5613V6.39705ZM22.0072 6.88424H22.2837V5.38806H22.0072V6.88424Z" fill="white"/>
<path fill-rule="evenodd" clip-rule="evenodd" d="M20.0523 3.90036L19.0502 4.76063V16.2821L20.0523 15.2722V3.90036" fill="white"/>
<path fill-rule="evenodd" clip-rule="evenodd" d="M19.3612 16.4691L20.3633 15.6088C21.089 15.8332 22.6439 15.4966 23.3686 15.3844C24.578 15.1974 25.0964 14.9355 25.9602 15.3844C25.4764 15.6088 25.1655 16.0577 25.1655 16.4691H19.3612Z" fill="white"/>
<path fill-rule="evenodd" clip-rule="evenodd" d="M32.871 16.4691L31.9035 15.6088C31.0743 15.8332 29.6575 15.4966 28.8973 15.3844C27.5843 15.1974 27.1696 14.9355 26.4095 15.3844C26.7896 15.6088 27.066 16.0577 26.9969 16.4691H32.871" fill="white"/>
<path fill-rule="evenodd" clip-rule="evenodd" d="M32.18 3.78802L33.1129 4.76058V16.1699L32.18 15.1974V3.78802Z" fill="white"/>
<path fill-rule="evenodd" clip-rule="evenodd" d="M31.8154 3.89097C31.8154 3.89097 30.5715 4.45198 29.5348 4.00315C28.2218 3.44206 27.1506 3.10543 26.3904 3.55427V15.0384C27.0469 14.7392 27.9108 14.8514 29.0856 15.1506C30.2605 15.4498 30.8824 15.4873 31.8154 15.3002V3.89097ZM27.5307 13.1682H28.1527C28.6364 13.1682 28.7401 12.6819 28.7401 12.3453C28.7401 12.0461 28.6364 11.6346 28.1527 11.6346H27.5307V13.1682ZM27.8417 11.8964H28.1181C28.2563 11.8964 28.4291 11.9338 28.4291 12.3827C28.4291 12.6445 28.36 12.9064 28.1181 12.9064H27.8417V11.8964ZM29.1202 12.6071C29.1202 13.3552 29.604 13.43 29.8113 13.43C29.9841 13.43 30.5023 13.3552 30.5023 12.6071C30.5023 11.8964 29.9841 11.8216 29.8113 11.8216C29.604 11.8216 29.1202 11.8964 29.1202 12.6071ZM29.4312 12.6071C29.4312 12.1957 29.6385 12.0835 29.8113 12.0835C29.9495 12.0835 30.1914 12.1957 30.1914 12.6071C30.1914 13.0559 29.9495 13.1682 29.8113 13.1682C29.6385 13.1682 29.4312 13.0559 29.4312 12.6071ZM28.3254 9.50252H28.9474V9.20329H28.3254V8.86667H29.0511V8.60389H28.0145V10.1384H28.3254V9.50252ZM29.3966 10.1758H29.7076V8.64227H29.3966V10.1758ZM28.0836 5.87338C28.049 5.64896 27.8762 5.34973 27.4616 5.34973C27.0815 5.34973 26.805 5.6125 26.805 6.13519C26.805 6.69629 27.0815 6.95905 27.4616 6.95905C27.8071 6.95905 28.0145 6.73458 28.0836 6.39705H27.7726C27.738 6.58408 27.6344 6.6963 27.4616 6.6963C27.1851 6.6963 27.1161 6.43443 27.1161 6.13519C27.1161 5.72374 27.3234 5.6125 27.4616 5.6125C27.7035 5.6125 27.738 5.79856 27.7726 5.87338H28.0836ZM28.3254 6.32315C28.3254 7.07031 28.8092 7.14605 29.0165 7.14605C29.1893 7.14605 29.7076 7.07031 29.7076 6.32315C29.7076 5.61251 29.1893 5.53768 29.0165 5.53768C28.8092 5.53768 28.3254 5.61251 28.3254 6.32315ZM28.6364 6.32315C28.6364 5.91175 28.8438 5.79856 29.0165 5.79856C29.1547 5.79856 29.3966 5.91175 29.3966 6.32315C29.3966 6.77106 29.1547 6.88424 29.0165 6.88424C28.8438 6.88424 28.6364 6.77106 28.6364 6.32315ZM30.7788 6.65982L30.2259 5.57414H29.9149V7.10774H30.1914V6.02298L30.7788 7.10774H31.0898V5.57414H30.7788V6.65982Z" fill="white"/>
<path fill-rule="evenodd" clip-rule="evenodd" d="M26.1676 15.6088C25.7875 16.0576 25.5801 16.0576 25.6838 16.4691H26.5477C26.6513 16.0576 26.5477 15.8332 26.1676 15.6088Z" fill="white"/>
<path fill-rule="evenodd" clip-rule="evenodd" d="M8.17256 36.9387C8.2961 36.6254 8.57425 35.7306 8.7306 35.4164C8.57425 35.1274 8.29609 34.8254 8.06112 34.8254C8.17255 34.5345 8.64163 34.1483 8.57425 33.8949C8.44123 33.6405 8.26241 33.677 7.7821 33.3872C7.93846 33.0365 8.2961 32.8195 8.53019 32.7831C8.80922 32.7233 8.80922 32.3118 9.23337 32.0584C9.72406 31.805 10.226 31.805 10.784 31.7442C11.5433 31.8405 13.5855 32.4325 13.0386 35.1274C14.2662 37.8214 18.5958 34.2325 20.1136 34.2325C19.8234 34.8254 19.4441 35.4164 19.1539 36.0214C19.5564 36.3347 20.1136 36.0214 20.549 36.0214C20.1136 37.5195 19.2774 38.1113 18.5958 38.7154C19.2774 41.1196 21.8439 40.177 24.1314 39.9236C23.8636 40.7325 22.9263 40.8054 22.4909 41.4095C23.2719 42.3278 24.1314 43.5116 24.6895 44.7076C23.6623 43.9829 21.5312 43.2096 20.8168 42.9197C19.4441 42.3278 16.6323 42.3278 15.2596 42.9197C15.5274 43.5116 16.0742 43.8136 16.52 44.1035C15.8064 45.6137 14.4113 44.7076 13.5855 44.4177C12.8823 45.0218 11.577 45.0583 11.2194 44.7076C11.2194 44.7076 11.2194 44.3214 11.6548 44.0306C11.9226 43.5957 10.8177 43.5116 10.5162 42.9197C10.5162 42.3642 11.063 42.9197 11.3645 42.3277C10.6613 40.8054 7.7821 40.5155 8.17256 36.9387V36.9387ZM10.1594 32.6503C10.3158 32.6503 10.4272 32.7831 10.4272 32.9402C10.4272 33.1094 10.3158 33.2422 10.1594 33.2422C9.99185 33.2422 9.86919 33.1094 9.86919 32.9402C9.86919 32.7831 9.99185 32.6503 10.1594 32.6503Z" fill="#131313"/>
<path fill-rule="evenodd" clip-rule="evenodd" d="M27.8659 37.367C27.9886 37.0771 28.2563 36.1709 28.4239 35.881C28.2563 35.5668 27.9886 35.2769 27.7536 35.2769C27.8659 34.9627 28.3341 34.5878 28.2564 34.3222C28.1337 34.0689 27.9549 34.1044 27.4642 33.8145C27.6309 33.4769 27.9886 33.259 28.2227 33.2225C28.5129 33.1861 28.5129 32.7391 28.9258 32.4857C29.4165 32.2322 29.9184 32.2322 30.4764 32.1958C31.2358 32.2678 33.2892 32.8719 32.7311 35.5668C33.9586 38.2609 38.3004 34.6729 39.8061 34.6729C39.5271 35.277 39.1366 35.881 38.8463 36.4729C39.2601 36.7628 39.8061 36.4729 40.2415 36.4729C39.8061 37.9711 38.9699 38.5751 38.3004 39.1671C38.9699 41.5591 41.5364 40.6286 43.8239 40.3752C43.5561 41.1728 42.6188 41.2692 42.1834 41.8611C42.9756 42.755 43.8239 43.9632 44.3819 45.1593C43.3557 44.4345 41.2237 43.649 40.5205 43.3591C39.1366 42.755 36.3248 42.755 34.9521 43.3591C35.2199 43.9632 35.7779 44.2531 36.2133 44.5551C35.4989 46.0532 34.1038 45.1593 33.2892 44.8572C32.5748 45.4491 31.2694 45.5099 30.9118 45.1593C30.9118 45.1593 30.9118 44.7852 31.3472 44.471C31.615 44.0474 30.5101 43.9632 30.2095 43.3591C30.2095 42.7915 30.7555 43.3591 31.0682 42.755C30.3546 41.2692 27.4642 40.955 27.8659 37.367V37.367ZM29.8069 33.0897C29.9745 33.0897 30.086 33.2225 30.086 33.4039C30.086 33.5611 29.9745 33.6938 29.8069 33.6938C29.6515 33.6938 29.5279 33.5611 29.5279 33.4039C29.5279 33.2225 29.6515 33.0897 29.8069 33.0897Z" fill="#131313"/>
<path fill-rule="evenodd" clip-rule="evenodd" d="M18.4421 52.3942C18.5535 52.1043 18.8325 51.1982 19.0001 50.9083C18.8325 50.6184 18.5535 50.3042 18.3194 50.3042C18.4421 50.0143 18.9111 49.615 18.8325 49.3616C18.7107 49.1082 18.5094 49.1559 18.0404 48.8539C18.208 48.5041 18.5535 48.2984 18.7997 48.2498C19.0675 48.2134 19.0675 47.7785 19.5029 47.5251C19.9711 47.2595 20.4955 47.2595 21.0422 47.2231C21.7904 47.3194 23.855 47.9001 23.2969 50.6184C24.5245 53.3125 28.8653 49.7001 30.3606 49.7001C30.0929 50.3042 29.6912 50.9083 29.4234 51.5124C29.8138 51.8022 30.3607 51.5124 30.8073 51.5124C30.3607 52.9983 29.546 53.6024 28.8653 54.2065C29.546 56.6106 32.1134 55.6559 34.4009 55.4025C34.1331 56.2001 33.1734 56.2965 32.738 56.9005C33.5301 57.7945 34.4009 58.9905 34.9589 60.1865C33.9318 59.4618 31.7895 58.7006 31.0863 58.3864C29.6912 57.7945 26.9018 57.7945 25.5067 58.3864C25.7857 58.9904 26.3437 59.3046 26.7791 59.5945C26.0647 61.0804 24.6808 60.1865 23.855 59.8844C23.1294 60.4885 21.8353 60.5371 21.4889 60.1865C21.4889 60.1865 21.4889 59.8124 21.9018 59.4982C22.1921 59.0877 21.076 58.9904 20.7632 58.3864C20.7632 57.8431 21.3213 58.3864 21.634 57.7944C20.9308 56.2965 18.0404 56.0065 18.4421 52.3942V52.3942ZM20.4065 48.117C20.5291 48.117 20.6406 48.2498 20.6406 48.4312C20.6406 48.5519 20.5291 48.6856 20.4065 48.6856C20.2614 48.6856 20.1387 48.5519 20.1387 48.4312C20.1387 48.2498 20.2614 48.117 20.4065 48.117Z" fill="#131313"/>
<path fill-rule="evenodd" clip-rule="evenodd" d="M13.0257 9.63349C12.9428 9.63349 12.7355 9.5437 13.0257 9.45391C13.1916 9.45391 13.6063 9.45391 14.0624 10.0823C14.2697 9.99252 14.7258 9.18464 15.2234 9.45391C15.2234 9.4988 13.6063 13.3599 13.4404 13.6741C12.7355 13.2701 8.58815 13.0008 9.00278 13.0008C9.3345 13.0008 5.22948 13.1355 4.60751 13.6741C4.40017 13.2701 2.78305 9.36414 2.78305 9.36414C3.28062 9.13972 3.81968 9.90276 3.98554 9.99254C4.40018 9.36414 4.81482 9.36414 4.89776 9.36414C5.31239 9.45392 5.06361 9.54371 5.02214 9.63349C3.03183 11.384 5.93437 13.3599 6.55635 11.384C9.12718 11.6982 8.42227 9.45392 7.8003 9.13973C7.30273 9.00509 7.63446 8.91531 7.8003 8.91531C8.00765 8.78067 8.33936 8.78068 8.33936 9.0051C8.33936 7.79227 8.42227 6.9843 9.00278 6.62524C9.62475 7.07408 9.7077 7.79227 9.62476 9.0051C9.7077 8.78068 9.99883 8.91531 10.2476 8.91531C10.3297 9.00509 10.7452 9.0051 10.3297 9.18466C9.62475 9.45393 9.00278 11.8329 11.533 11.384C12.1135 13.3599 15.1819 11.1596 13.0257 9.63349V9.63349ZM11.3257 11.9675L12.0721 12.911L10.6208 12.6866L11.3257 11.9675ZM9.00278 10.8903L9.91501 12.6866H8.13202L9.00278 10.8903ZM6.72222 11.9675L5.97584 12.911L7.42714 12.6866L6.72222 11.9675Z" fill="white"/>
<path fill-rule="evenodd" clip-rule="evenodd" d="M5.68989 15.864C5.39964 15.3254 5.06792 14.3829 4.90207 14.1584C5.60782 13.5749 8.22013 13.4852 9.1738 13.4852C10.5836 13.4852 12.5325 13.7096 13.1544 14.1584C13.1544 14.1584 12.8642 15.2806 12.6154 15.9538C11.4959 15.505 10.0031 15.3254 9.00795 15.3254C7.88841 15.3254 6.56065 15.505 5.68989 15.864V15.864ZM12.2008 14.338C12.4496 14.338 12.6984 14.6073 12.6984 14.8317C12.6984 15.101 12.4496 15.3704 12.2008 15.3704C11.9934 15.3704 11.7446 15.101 11.7446 14.8317C11.7446 14.6073 11.9934 14.338 12.2008 14.338ZM10.6666 13.9789C10.9154 13.9789 11.1641 14.2482 11.1641 14.4726C11.1641 14.742 10.9154 15.0113 10.6666 15.0113C10.4592 15.0113 10.2104 14.742 10.2104 14.4726C10.2104 14.2482 10.4592 13.9789 10.6666 13.9789ZM9.04943 13.8442C9.29821 13.8442 9.54699 14.1136 9.54699 14.338C9.54699 14.6073 9.29821 14.8766 9.04943 14.8766C8.84211 14.8766 8.59329 14.6073 8.59329 14.338C8.59329 14.1136 8.84211 13.8442 9.04943 13.8442ZM7.43228 13.9789C7.68106 13.9789 7.92988 14.2482 7.92988 14.4726C7.92988 14.742 7.68106 15.0113 7.43228 15.0113C7.22497 15.0113 6.97618 14.742 6.97618 14.4726C6.97618 14.2482 7.22497 13.9789 7.43228 13.9789ZM5.93867 14.338C6.18746 14.338 6.43712 14.6073 6.43712 14.8317C6.43712 15.101 6.18746 15.3704 5.93867 15.3704C5.73223 15.3704 5.48345 15.101 5.48345 14.8317C5.48345 14.6073 5.73223 14.338 5.93867 14.338Z" fill="white"/>
<path fill-rule="evenodd" clip-rule="evenodd" d="M9.00017 15.6864C10.8246 15.6864 12.5152 16.0521 12.5152 16.2718C12.5152 16.4915 11.0277 16.6374 9.13497 16.6374C7.30963 16.6374 5.75555 16.4915 5.75555 16.2718C5.75555 16.0521 7.17486 15.6864 9.00017 15.6864" fill="white"/>
<path fill-rule="evenodd" clip-rule="evenodd" d="M228.888 6.67664C231.071 6.67664 232.902 8.62073 232.902 11.0221C232.902 13.4234 231.071 15.4059 228.888 15.4059C226.705 15.4059 224.909 13.4234 224.909 11.0221C224.909 8.62073 226.705 6.67664 228.888 6.67664ZM266.95 52.8C266.774 54.7058 265.965 55.9635 262.654 56.9547C260.049 57.8693 260.366 59.356 263.007 59.4711C270.119 58.3658 272.337 58.5556 278.71 59.3187C281.211 59.2803 280.788 57.527 279.239 56.7266C275.506 55.163 274.907 55.1247 274.169 51.1224L273.886 10.7172C273.886 8.39163 274.697 5.68543 272.408 6.29511C268.148 8.12509 267.795 8.27755 263.923 9.72605C261.88 10.6789 262.654 11.7458 264.133 12.2798C266.211 13.1943 266.387 14.5671 266.493 16.2063L266.95 52.8ZM245.05 52.5709C244.874 54.4776 244.063 55.7354 240.754 56.7266C238.149 57.6411 238.465 59.1279 241.106 59.242C248.219 58.1367 250.437 58.3275 256.81 59.0896C259.31 59.0512 258.887 57.2979 257.338 56.4974C253.606 54.9349 253.007 54.8965 252.267 50.8943L251.986 10.4882C251.986 8.16253 252.796 5.45634 250.507 6.06692C246.246 7.896 245.895 8.04843 242.021 9.49693C239.979 10.4498 240.754 11.5177 242.233 12.0507C244.311 12.9662 244.486 14.338 244.592 15.9772L245.05 52.5709ZM225.085 36.6759C224.909 34.6178 224.663 33.0168 222.48 32.3304C220.93 32.178 220.192 30.6529 222.409 29.7383C226.846 28.1758 227.48 27.9083 230.895 24.9356C231.951 24.325 233.184 24.8206 232.585 26.8797C232.339 28.4423 232.374 29.1661 232.268 30.8437L232.304 51.8855C232.48 55.3155 234.945 55.8878 236.529 56.5741C238.113 57.2596 238.254 59.2803 236.388 59.3187C229.487 58.2891 227.972 58.175 221.318 59.6235C219.1 59.6619 218.607 57.8318 221.354 56.7649C224.1 55.697 225.015 55.2014 225.156 52.6476L225.085 36.6759ZM163.996 32.7878C165.545 14.8336 176.178 7.32467 191.143 5.99026C206.917 6.10435 209.171 7.24796 208.959 16.7777C209.065 20.2086 206.952 21.0091 205.473 17.1209C203.784 13.6142 202.375 11.5935 198.361 9.80177C184.77 6.48585 174.7 15.9389 174.101 32.0256C173.151 54.7058 196.601 61.3385 201.459 52.8767C202.481 50.6652 202.481 44.7955 202.339 39.9544C201.494 36.7517 198.678 37.0574 195.931 36.9424C192.973 37.1715 191.918 33.5498 195.897 33.5882C199.734 33.5882 207.128 33.9697 216.635 33.0168C219.451 33.1309 219.663 35.9138 216.213 36.3327C214.734 36.6376 211.6 36.5992 211.177 39.2681C210.825 53.0666 213.783 54.401 204.171 58.175C191.918 61.3002 178.714 59.8517 171.249 52.0379C167.904 48.8361 163.715 41.4786 163.996 32.7878H163.996ZM132.342 42.0126C133.715 27.0695 145.158 23.5629 151.039 23.5245C158.01 23.7536 160.228 26.2307 160.299 28.7471C160.369 31.2626 158.715 32.597 156.919 32.064C153.081 30.996 153.82 26.6122 148.715 26.2691C142.941 27.1845 139.454 34.1979 140.44 42.5839C141.426 50.97 148.926 57.2222 158.081 52.1136C160.299 51.5806 160.475 53.5621 158.679 54.9349C141.849 66.1413 131.638 50.1696 132.342 42.0126V42.0126ZM80.3718 16.9301C80.0202 11.7842 78.5413 13.3468 74.9149 11.7842C71.9916 11.1745 71.7454 8.88721 74.6324 8.77317C79.844 9.1921 82.4494 9.26875 86.7799 8.54408C88.7521 8.88721 89.5969 9.76438 90.3364 11.8226C93.9628 20.1328 99.2444 32.597 102.872 40.9073C103.505 42.3932 103.857 42.6989 104.667 40.7923L115.371 11.1745C116.568 8.65811 117.871 8.04843 121.603 8.42997C128.046 8.54406 129.63 8.35334 132.8 7.97271C135.546 8.08681 135.37 10.3741 132.659 11.1745C128.504 11.2128 126.321 12.7371 125.688 16.0913L126.286 50.0938C126.955 55.163 129.384 55.3155 133.75 56.5358C135.722 57.4886 135.3 58.9755 133.609 59.4711C124.491 58.3275 121.321 58.4032 112.272 59.3561C109.667 59.6235 109.491 57.1838 112.308 56.5358C115.652 55.7353 116.497 55.0873 117.237 53.1816L116.568 20.3994C116.463 19.1033 115.722 19.1033 115.265 20.6276L102.484 55.2014C101.287 58.1367 100.759 58.1367 99.4561 55.8494L84.3507 20.4377C83.8929 19.2174 83.3297 19.5989 83.2588 20.361L83.4005 51.6181C83.8229 55.2397 86.1467 55.4679 90.865 57.0697C92.2023 57.527 92.2731 58.7464 91.1812 59.5085C81.9561 58.6706 80.4772 58.6707 71.9216 59.8517C70.5835 59.8517 69.9494 57.7168 72.027 57.412C76.5691 56.0019 77.8019 55.9261 78.4705 53.1049L80.3718 16.9301" fill="#131313"/>
</svg>
