<svg width="319" height="62" viewBox="0 0 319 62" fill="none" xmlns="http://www.w3.org/2000/svg">
<path d="M208 18.1437C196 18.1437 186 29.1437 186 41.1437C186 51.1437 191 59.1437 203 59.1437C211 59.1437 216 55.1437 217 47.1437C217 53.1437 220 59.1437 228 59.1437C235 59.1437 240 57.1437 244 47.1437C244 46.1437 243 45.1437 243 43.1437C242 45.1437 240 52.1437 237 52.1437C235 52.1437 235 50.1437 236 45.1437L241 18.1437C237 18.1437 233 18.1437 230 18.1437C228 18.1437 227 18.1437 225 18.1437C223 18.1437 222 18.1437 221 18.1437L220 26.1437C219 21.1437 215 18.1437 208 18.1437ZM211 54.1437C209 54.1437 208 52.1437 208 48.1437C208 45.1437 209 35.1437 211 30.1437C213 25.1437 214 24.1437 216 24.1437C219 24.1437 219 28.1437 219 29.1437C219 34.1437 218 39.1437 217 43.1437C215 52.1437 214 54.1437 211 54.1437Z" fill="#131313"/>
<path d="M313 34.1437C311 34.1437 309 35.1437 306 38.1437C305 39.1437 304 40.1437 303 42.1437C302 43.1437 302 44.1437 301 45.1437H303C303 46.1437 302 48.1437 302 49.1437C303 47.1437 304 46.1437 304 45.1437C304 45.1437 305 44.1437 306 44.1437H307C307 44.1437 307 44.1437 308 45.1437C309 46.1437 309 46.1437 309 47.1437C310 48.1437 311 48.1437 312 48.1437C314 48.1437 316 46.1437 317 46.1437C319 44.1437 320 40.1437 316 37.1437C317 35.1437 315 34.1437 313 34.1437ZM302 45.1437C301 47.1437 300 49.1437 299 51.1437C300 49.1437 301 46.1437 302 45.1437ZM302 51.1437C302 51.1437 302 52.1437 301 52.1437C301 52.1437 301 51.1437 302 51.1437Z" fill="#131313"/>
<path d="M304 0.143738C302 1.14374 291 2.14374 286 2.14374H285C282 2.14374 275 1.14373 275 1.14373V3.14374L283 4.14373L279 25.1437C276 20.1437 271 18.1437 266 18.1437C253 18.1437 245 31.1437 245 41.1437C245 42.1437 245 43.1438 245 44.1438C245 45.1438 245 46.1437 246 48.1437C248 55.1438 253 60.1437 262 60.1437C270 60.1437 275 56.1438 277 49.1438C277 56.1438 280 60.1437 289 60.1437C296 60.1437 300 57.1437 302 52.1437C302 52.1437 302 51.1437 303 51.1437C303 50.1437 304 49.1438 304 49.1438C305 48.1438 305 46.1437 305 45.1437H303C303 45.1437 303 45.1437 303 46.1437C302 47.1437 302 50.1437 300 52.1437C299 54.1437 298 55.1437 297 55.1437C296 55.1437 296 54.1437 296 52.1437C294 51.1437 303 4.14374 304 0.143738ZM269 54.1438C267 54.1438 266 53.1438 266 49.1438C266 44.1438 267 41.1437 268 36.1437C269 30.1437 271 24.1437 274 24.1437C276 24.1437 277 25.1437 277 29.1437C277 33.1437 277 38.1437 275 45.1437C273 53.1437 271 54.1438 269 54.1438Z" fill="#131313"/>
<path d="M44 19.1437C39 19.1437 34 21.1437 27 28.1437L29 19.1437C21 20.1437 13 20.1437 2 20.1437L1 23.1437H8L0 59.1437H20L24 38.1437C28 29.1437 32 26.1437 33 26.1437C34 26.1437 34 27.1437 34 27.1437C35 28.1437 30 49.1437 30 52.1437C30 55.1437 31 57.1437 33 58.1437C35 60.1437 39 61.1437 43 61.1437C51 61.1437 56 57.1437 60 50.1437C60 49.1437 59 47.1437 59 45.1437C58 47.1437 55 53.1437 53 56.1437C53 56.1437 52 57.1437 51 57.1437C50 57.1437 50 57.1437 50 56.1437C50 54.1437 55 35.1437 56 31.1437C56 30.1437 56 29.1437 56 29.1437C54 19.1437 46 19.1437 44 19.1437Z" fill="#131313"/>
<path d="M177 19.1437C172 19.1437 170 23.1437 170 26.1437C170 27.1437 170 32.1437 176 32.1437C177 32.1437 177 32.1437 178 32.1437H179C181 32.1437 181 35.1437 181 35.1437C181 39.1437 178 47.1437 173 52.1437C172 53.1437 169 56.1437 166 56.1437C162 56.1437 162 52.1437 162 51.1437C162 49.1437 163 45.1437 163 43.1437C164 39.1437 167 23.1437 168 20.1437H148C144 38.1437 139 48.1437 137 51.1437C136 52.1437 134 55.1437 133 55.1437C132 55.1437 132 55.1437 132 54.1437C132 53.1437 136 35.1437 137 31.1437C137 30.1437 137 29.1437 137 27.1437C137 21.1437 132 18.1437 125 18.1437C114 18.1437 109 25.1437 106 34.1437C103 40.1437 103 43.1437 100 46.1437C98.0001 50.1437 95.0001 53.1437 90.0001 55.1437C88.0001 56.1437 85.0001 57.1437 82.0001 57.1437C76.0001 57.1437 76.0001 53.1437 76.0001 51.1437C76.0001 50.1437 76.0001 49.1437 77.0001 42.1437C78.0001 42.1437 79.0001 42.1437 81.0001 42.1437C89.0001 42.1437 103 41.1437 103 30.1437C103 29.1437 103 23.1437 97.0001 20.1437C93.0001 18.1437 88.0001 18.1437 86.0001 18.1437C67.0001 18.1437 57.0001 32.1437 57.0001 43.1437V44.1437C57.0001 46.1437 57.0001 47.1437 58.0001 49.1437C60.0001 53.1437 63.0001 56.1437 66.0001 58.1437C70.0001 60.1437 75.0001 60.1437 79.0001 60.1437C84.0001 60.1437 94.0001 60.1437 102 47.1437C103 45.1437 105 41.1437 108 35.1437C110 31.1437 112 27.1437 114 25.1437C114 25.1437 115 24.1437 116 24.1437C117 24.1437 117 25.1437 117 26.1437C117 28.1437 114 42.1437 114 44.1437C114 46.1437 113 49.1437 113 51.1437C113 57.1437 118 59.1437 120 59.1437C121 59.1437 123 60.1437 125 60.1437C137 60.1437 142 52.1437 146 41.1437C146 44.1437 146 45.1437 146 47.1437C146 49.1437 146 54.1437 150 57.1437C152 59.1437 156 60.1437 161 60.1437C169 60.1437 175 57.1437 181 48.1437C184 43.1437 186 38.1437 187 32.1437C187 30.1437 187 29.1437 187 27.1437C185 20.1437 180 19.1437 177 19.1437ZM78.0001 40.1437C79.0001 36.1437 81.0001 28.1437 82.0001 24.1437C83.0001 22.1437 84.0001 21.1437 85.0001 21.1437C87.0001 21.1437 87.0001 22.1437 87.0001 25.1437C87.0001 29.1437 86.0001 32.1437 85.0001 34.1437C84.0001 39.1437 81.0001 39.1437 78.0001 40.1437Z" fill="#131313"/>
</svg>
