<svg width="285" height="82" viewBox="0 0 285 82" fill="none" xmlns="http://www.w3.org/2000/svg">
<path d="M42.2687 2.9436L47.1512 9.11112H79.6549V73.4496H64.1703L30.8297 30.5573V40.5094L61.2408 79.4769H85.7929V2.9436H42.2687ZM27.3421 2.9436H3.20851V79.4769H46.1747L41.2922 73.3094H9.34654V9.11112H24.4126L57.6138 52.1436V42.0513" fill="#131313"/>
<path d="M119.692 36.0239L106.718 19.2034V36.0239H96.8135V2.9436H106.021L118.994 19.9043V2.9436H128.899V36.0239H119.692V36.0239Z" fill="#131313"/>
<path d="M144.383 11.2137V15.2786H159.728V23.5487H144.383V27.6137H161.681V35.8838H133.502V2.9436H161.263V11.2137H144.383Z" fill="#131313"/>
<path d="M194.325 36.0239L189.721 16.2598L184.978 36.0239H173.818L163.216 2.9436H174.794L179.816 24.6701L184.699 3.08377H195.301L200.323 24.8103L205.206 3.08377H216.366L205.624 36.1641H194.325V36.0239Z" fill="#131313"/>
<path d="M119.692 79.4769L106.718 62.6564V79.4769H96.8135V46.3966H106.021L118.994 63.3573V46.3966H128.899V79.4769H119.692Z" fill="#131313"/>
<path d="M143.546 74.8513L141.872 79.4769H130.712L144.523 46.3966H155.683L169.075 79.4769H157.496L155.822 74.8513H143.546ZM149.824 57.3299L146.336 67.0017H153.172L149.824 57.3299Z" fill="#131313"/>
<path d="M185.257 55.0872V79.4769H174.376V55.0872H165.029V46.5367H194.603V55.0872H185.257Z" fill="#131313"/>
<path d="M197.254 79.4769V46.3966H208.135V79.4769H197.254Z" fill="#131313"/>
<path d="M247.335 62.9368C247.335 72.7488 239.802 79.8975 229.339 79.8975C218.877 79.8975 211.344 72.7488 211.344 62.9368C211.344 53.1248 218.877 46.1163 229.339 46.1163C239.662 46.1163 247.335 53.1248 247.335 62.9368ZM222.364 62.9368C222.364 67.4223 225.712 70.7864 229.339 70.7864C233.106 70.7864 236.035 67.4223 236.035 62.9368C236.035 58.4513 232.966 55.2274 229.339 55.2274C225.573 55.2274 222.364 58.4513 222.364 62.9368Z" fill="#131313"/>
<path d="M273.142 79.4769L260.169 62.6564V79.4769H250.264V46.3966H259.332L272.305 63.3573V46.3966H282.21V79.4769H273.142Z" fill="#131313"/>
</svg>
