<?xml version="1.0" encoding="iso-8859-1"?>
<!-- Generator: Adobe Illustrator 19.0.0, SVG Export Plug-In . SVG Version: 6.00 Build 0)  -->
<svg version="1.1" id="Layer_1" xmlns="http://www.w3.org/2000/svg" xmlns:xlink="http://www.w3.org/1999/xlink" x="0px" y="0px"
	 viewBox="0 0 460 460" style="enable-background:new 0 0 460 460;" xml:space="preserve">
<g id="XMLID_1114_">
	<polygon id="XMLID_1115_" style="fill:#354A67;" points="280,50 300,65 280,80 210,100 230,50 	"/>
	<polygon id="XMLID_1116_" style="fill:#466289;" points="230,50 230,100 180,80 160,65 180,50 	"/>
	<polygon id="XMLID_1117_" style="fill:#121923;" points="290,270 230,270 220,230 290,240 	"/>
	<polygon id="XMLID_1118_" style="fill:#233145;" points="230,270 170,270 170,240 230,230 	"/>
	<polygon id="XMLID_1119_" style="fill:#121923;" points="290,100 290,220 210,220 230,100 	"/>
	<rect id="XMLID_1120_" x="170" y="100" style="fill:#233145;" width="60" height="120"/>
	<polygon id="XMLID_1121_" style="fill:#233145;" points="230,210 220,225 230,240 290,240 290,210 	"/>
	<rect id="XMLID_1122_" x="170" y="210" style="fill:#354A67;" width="60" height="30"/>
	<polygon id="XMLID_1123_" style="fill:#233145;" points="230,80 210,95 230,110 290,110 290,80 	"/>
	<rect id="XMLID_1124_" x="170" y="80" style="fill:#354A67;" width="60" height="30"/>
	<polygon id="XMLID_1125_" style="fill:#354A67;" points="280,0 400,0 400,50 340,70 280,50 	"/>
	<polygon id="XMLID_1126_" style="fill:#121923;" points="280,80 400,120 400,50 280,50 	"/>
	<polygon id="XMLID_1127_" style="fill:#354A67;" points="280,80 430,80 460,335 370,355 280,335 	"/>
	<polygon id="XMLID_1128_" style="fill:#233145;" points="460,460 280,460 280,430 370,410 460,430 	"/>
	<rect id="XMLID_1129_" x="280" y="335" style="fill:#121923;" width="180" height="95"/>
	<polygon id="XMLID_1130_" style="fill:#466289;" points="180,0 60,0 60,50 120,70 180,50 	"/>
	<polygon id="XMLID_1131_" style="fill:#233145;" points="180,80 60,120 60,50 180,50 	"/>
	<polygon id="XMLID_1132_" style="fill:#466289;" points="180,80 30,80 0,335 90,365 180,335 	"/>
	<polygon id="XMLID_1133_" style="fill:#354A67;" points="180,460 0,460 0,430 90,410 180,430 	"/>
	<rect id="XMLID_1134_" y="335" style="fill:#233145;" width="180" height="95"/>
</g>
<g>
</g>
<g>
</g>
<g>
</g>
<g>
</g>
<g>
</g>
<g>
</g>
<g>
</g>
<g>
</g>
<g>
</g>
<g>
</g>
<g>
</g>
<g>
</g>
<g>
</g>
<g>
</g>
<g>
</g>
</svg>
