<svg height="512pt" viewBox="0 -16 512 512" width="512pt" xmlns="http://www.w3.org/2000/svg"><path d="m452 195c0 57.898438-47.101562 105-105 105h-257c-49.5 0-90-40.5-90-90 0-38.402344 25.199219-72.597656 60.902344-84.601562 5.695312-38.398438 39.398437-66.898438 76.597656-65.398438 18.898438-32.402344 51.902344-54.300781 88.5-58.800781 5.097656-.898438 10.902344-1.199219 16-1.199219 55.5 0 102.300781 37.5 115.5 90.902344 54 5.996094 94.5 50.398437 94.5 104.097656zm0 0" fill="#e0f4ff"/><path d="m452 195c0 57.898438-47.101562 105-105 105h-121v-298.800781c5.097656-.898438 10.902344-1.199219 16-1.199219 55.5 0 102.300781 37.5 115.5 90.902344 54 5.996094 94.5 50.398437 94.5 104.097656zm0 0" fill="#bbdcff"/><path d="m482 345c0-2.699219 0-5.699219-.300781-8.402344l30.300781-14.097656-45-78-30.601562 14.398438c-4.796876-3.300782-9.300782-6-14.398438-8.398438v-40.5h-90v40.5c-5.097656 2.398438-9.601562 5.097656-14.398438 8.398438l-30.601562-14.398438-45 78 30.300781 14.097656c-.300781 2.703125-.300781 5.703125-.300781 8.402344s0 5.699219.300781 8.398438l-30.300781 14.101562 45 78 30.601562-14.398438c4.796876 3.296876 9.300782 6 14.398438 8.398438v40.5h90v-40.5c5.097656-2.398438 9.601562-5.101562 14.398438-8.398438l30.601562 14.398438 45-78-30.300781-14.101562c.300781-2.699219.300781-5.699219.300781-8.398438zm-105 45c-24.902344 0-45-20.101562-45-45 0-24.902344 20.097656-45 45-45s45 20.097656 45 45c0 24.898438-20.097656 45-45 45zm0 0" fill="#979fef"/><path d="m481.699219 353.398438 30.300781 14.101562-45 78-30.601562-14.398438c-4.796876 3.296876-9.300782 6-14.398438 8.398438v40.5h-45v-90c24.902344 0 45-20.101562 45-45 0-24.902344-20.097656-45-45-45v-90h45v40.5c5.097656 2.398438 9.601562 5.097656 14.398438 8.398438l30.601562-14.398438 45 78-30.300781 14.097656c.300781 2.703125.300781 5.703125.300781 8.402344s0 5.699219-.300781 8.398438zm0 0" fill="#737ee6"/></svg>