<svg id="Layer_1" enable-background="new 0 0 512 512" height="512" viewBox="0 0 512 512" width="512" xmlns="http://www.w3.org/2000/svg"><path d="m481 150v272h-450v-272l30-30h390z" fill="#ffda2d"/><path d="m481 150v272h-225v-302h195z" fill="#fdbf00"/><path d="m331 287v60h-30v-60c0-24.901-20.099-45-45-45s-45 20.099-45 45v60h-30v-60c0-41.4 33.6-75 75-75s75 33.6 75 75z" fill="#596c76"/><path d="m331 287v60h-30v-60c0-24.901-20.099-45-45-45v-30c41.4 0 75 33.6 75 75z" fill="#465a61"/><path d="m151 332v180h210v-180z" fill="#fdbf00"/><path d="m256 332h105v180h-105z" fill="#ff9100"/><path d="m241 392h30v60h-30z" fill="#596c76"/><path d="m256 392h15v60h-15z" fill="#465a61"/><path d="m481 60v90h-450v-150h144.3l30 60z" fill="#596c76"/><path d="m256 60h225v90h-225z" fill="#465a61"/></svg>