<svg height="512pt" viewBox="-44 0 512 512" width="512pt" xmlns="http://www.w3.org/2000/svg"><path d="m304 0-14.945312 30h-77.054688l-119.953125 226 119.953125 256h212v-512zm0 0" fill="#ff451b"/><path d="m134.945312 30-14.945312-30h-120v512h212v-482zm0 0" fill="#ff6523"/><path d="m274 0h-62l-30 90h119.582031zm0 0" fill="#76838a"/><path d="m150 0-27.582031 90h89.582031v-90zm0 0" fill="#899ba1"/><path d="m364 60h-152l-59.96875 196 59.96875 196h152zm0 0" fill="#d6faff"/><path d="m60 60h152v392h-152zm0 0" fill="#fff"/><path d="m304 0h-30v105h-62l-29.972656 15 29.972656 15h92zm0 0" fill="#a3bbc0"/><path d="m150 105v-105h-30v135h92v-30zm0 0" fill="#bcdae0"/><path d="m304 240.398438h-92l-29.972656 15 29.972656 15h92zm0 0" fill="#3c4047"/><path d="m120 240.398438h92v30h-92zm0 0" fill="#50545b"/><path d="m304 300.398438h-92l-29.972656 15 29.972656 15h92zm0 0" fill="#3c4047"/><path d="m120 300.398438h92v30h-92zm0 0" fill="#50545b"/><path d="m304 180.398438h-92l-29.972656 15 29.972656 15h92zm0 0" fill="#3c4047"/><g fill="#50545b"><path d="m120 180.398438h92v30h-92zm0 0"/><path d="m120 361.601562h92v30h-92zm0 0"/></g></svg>