<svg height="512pt" viewBox="-31 0 512 512" width="512pt" xmlns="http://www.w3.org/2000/svg"><path d="m0 0v211h68.699219l36.300781 36.300781 36.300781-36.300781h167.398438l36.300781 36.300781 36.300781-36.300781h68.699219v-211zm0 0" fill="#ffd400"/><path d="m450 0v211h-68.699219l-36.300781 36.300781-36.300781-36.300781h-83.699219v-211zm0 0" fill="#fdbf00"/><path d="m60 61h330v30h-330zm0 0" fill="#5a5a5a"/><path d="m90 121h270v30h-270zm0 0" fill="#5a5a5a"/><path d="m105 391c-49.5 0-90 41.5-90 91v30h180v-30c0-49.5-40.5-91-90-91zm0 0" fill="#73bcff"/><path d="m195 482v30h-90v-121c49.5 0 90 41.5 90 91zm0 0" fill="#0095ff"/><path d="m105 271c-33 0-60 27-60 60s27 60 60 60 60-27 60-60-27-60-60-60zm0 0" fill="#73bcff"/><path d="m105 391v-120c33 0 60 27 60 60s-27 60-60 60zm0 0" fill="#0095ff"/><path d="m345 391c-49.5 0-90 41.5-90 91v30h180v-30c0-49.5-40.5-91-90-91zm0 0" fill="#73bcff"/><path d="m435 482v30h-90v-121c49.5 0 90 41.5 90 91zm0 0" fill="#0095ff"/><path d="m345 271c-33 0-60 27-60 60s27 60 60 60 60-27 60-60-27-60-60-60zm0 0" fill="#73bcff"/><path d="m345 391v-120c33 0 60 27 60 60s-27 60-60 60zm0 0" fill="#0095ff"/><g fill="#444"><path d="m225 121h135v30h-135zm0 0"/><path d="m225 61h165v30h-165zm0 0"/></g></svg>